<?xml version="1.0" encoding="UTF-8" standalone="no"?><!DOCTYPE svg PUBLIC "-//W3C//DTD SVG 1.1//EN" "http://www.w3.org/Graphics/SVG/1.1/DTD/svg11.dtd"><svg width="100%" height="100%" viewBox="0 0 22 22" version="1.1" xmlns="http://www.w3.org/2000/svg" xmlns:xlink="http://www.w3.org/1999/xlink" xml:space="preserve" xmlns:serif="http://www.serif.com/" style="fill-rule:evenodd;clip-rule:evenodd;stroke-linejoin:round;stroke-miterlimit:2;"><g id="power-button" serif:id="power button"><rect x="10.143" y="5" width="1.714" height="6.857" style="fill:#fff;"/><path d="M13.571,5.692c2.027,0.954 3.429,3 3.429,5.368c-0,3.278 -2.689,5.94 -6,5.94c-3.311,-0 -6,-2.662 -6,-5.94c-0,-2.368 1.402,-4.414 3.429,-5.368l-0,1.974c-1.041,0.775 -1.715,2.007 -1.715,3.394c0,2.342 1.921,4.243 4.286,4.243c2.365,-0 4.286,-1.901 4.286,-4.243c-0,-1.387 -0.674,-2.619 -1.715,-3.394l0,-1.974Z" style="fill:#fff;"/></g></svg>